<svg width="34" height="34" viewBox="0 0 34 34" fill="none" xmlns="http://www.w3.org/2000/svg">
<path d="M33 9.42989C33 4.78135 29.2187 1 24.5704 1C21.3114 1 18.3906 2.89803 17.0001 5.7244C15.6094 2.89803 12.6883 1 9.42965 1C4.78134 1 1 4.78135 1 9.42989C1 12.6863 2.83332 15.5579 5.63867 16.9585C2.83332 18.3589 1 21.2305 1 24.487C1 29.1355 4.78134 32.9169 9.42965 32.9169C12.6883 32.9169 15.6094 31.0188 17.0001 28.1925C18.3906 31.0188 21.3114 32.9169 24.5704 32.9169C29.2187 32.9169 33 29.1355 33 24.487C33 21.2305 31.1667 18.3589 28.3613 16.9585C31.1667 15.5579 33 12.6863 33 9.42989Z" fill="#33CCCC" stroke="white" stroke-width="2"/>
</svg>
